<mxfile host="app.diagrams.net" agent="Mozilla/5.0 (Windows NT 10.0; Win64; x64) AppleWebKit/537.36 (KHTML, like Gecko) Chrome/128.0.0.0 Safari/537.36" version="24.7.12">
  <diagram name="ページ1" id="sx3g4yXKvHFDGbU06EfH">
    <mxGraphModel dx="988" dy="523" grid="1" gridSize="10" guides="1" tooltips="1" connect="1" arrows="1" fold="1" page="1" pageScale="1" pageWidth="827" pageHeight="1169" math="0" shadow="0">
      <root>
        <mxCell id="0" />
        <mxCell id="1" parent="0" />
        <mxCell id="ZCagRAPsuJKCfBC6tAdb-1" value="InputData" style="rounded=0;whiteSpace=wrap;html=1;fillColor=#f5f5f5;fontColor=#333333;strokeColor=#666666;" vertex="1" parent="1">
          <mxGeometry x="30" y="400" width="80" height="40" as="geometry" />
        </mxCell>
        <mxCell id="ZCagRAPsuJKCfBC6tAdb-2" value="" style="endArrow=classic;html=1;rounded=0;" edge="1" parent="1">
          <mxGeometry width="50" height="50" relative="1" as="geometry">
            <mxPoint x="110" y="420" as="sourcePoint" />
            <mxPoint x="150" y="420" as="targetPoint" />
          </mxGeometry>
        </mxCell>
        <mxCell id="ZCagRAPsuJKCfBC6tAdb-3" value="LLM" style="rounded=0;whiteSpace=wrap;html=1;fillColor=#e1d5e7;strokeColor=#9673a6;" vertex="1" parent="1">
          <mxGeometry x="150" y="400" width="80" height="40" as="geometry" />
        </mxCell>
        <mxCell id="ZCagRAPsuJKCfBC6tAdb-4" value="Output" style="rounded=0;whiteSpace=wrap;html=1;fillColor=#fff2cc;strokeColor=#d6b656;" vertex="1" parent="1">
          <mxGeometry x="270" y="400" width="80" height="40" as="geometry" />
        </mxCell>
        <mxCell id="ZCagRAPsuJKCfBC6tAdb-6" value="" style="endArrow=classic;html=1;rounded=0;" edge="1" parent="1">
          <mxGeometry width="50" height="50" relative="1" as="geometry">
            <mxPoint x="230" y="419.76" as="sourcePoint" />
            <mxPoint x="270" y="419.76" as="targetPoint" />
          </mxGeometry>
        </mxCell>
        <mxCell id="ZCagRAPsuJKCfBC6tAdb-7" value="" style="endArrow=classic;html=1;rounded=0;" edge="1" parent="1">
          <mxGeometry width="50" height="50" relative="1" as="geometry">
            <mxPoint x="490" y="507.26" as="sourcePoint" />
            <mxPoint x="550" y="507" as="targetPoint" />
          </mxGeometry>
        </mxCell>
        <mxCell id="ZCagRAPsuJKCfBC6tAdb-8" value="Next Utter" style="rounded=0;whiteSpace=wrap;html=1;fillColor=#b0e3e6;strokeColor=#0e8088;" vertex="1" parent="1">
          <mxGeometry x="430" y="260" width="60" height="35" as="geometry" />
        </mxCell>
        <mxCell id="ZCagRAPsuJKCfBC6tAdb-9" value="Next Eye Pos" style="rounded=0;whiteSpace=wrap;html=1;fillColor=#b0e3e6;strokeColor=#0e8088;" vertex="1" parent="1">
          <mxGeometry x="430" y="397.5" width="60" height="35" as="geometry" />
        </mxCell>
        <mxCell id="ZCagRAPsuJKCfBC6tAdb-10" value="Next Voice Volumn" style="rounded=0;whiteSpace=wrap;html=1;fillColor=#b0e3e6;strokeColor=#0e8088;" vertex="1" parent="1">
          <mxGeometry x="430" y="490" width="60" height="35" as="geometry" />
        </mxCell>
        <mxCell id="ZCagRAPsuJKCfBC6tAdb-11" value="Next Dialect" style="rounded=0;whiteSpace=wrap;html=1;fillColor=#b0e3e6;strokeColor=#0e8088;" vertex="1" parent="1">
          <mxGeometry x="430" y="580" width="60" height="35" as="geometry" />
        </mxCell>
        <mxCell id="ZCagRAPsuJKCfBC6tAdb-12" value="" style="endArrow=classic;html=1;rounded=0;" edge="1" parent="1">
          <mxGeometry width="50" height="50" relative="1" as="geometry">
            <mxPoint x="490" y="277.26" as="sourcePoint" />
            <mxPoint x="550" y="277" as="targetPoint" />
          </mxGeometry>
        </mxCell>
        <mxCell id="ZCagRAPsuJKCfBC6tAdb-13" value="" style="endArrow=classic;html=1;rounded=0;" edge="1" parent="1">
          <mxGeometry width="50" height="50" relative="1" as="geometry">
            <mxPoint x="490" y="597.26" as="sourcePoint" />
            <mxPoint x="550" y="597" as="targetPoint" />
          </mxGeometry>
        </mxCell>
        <mxCell id="ZCagRAPsuJKCfBC6tAdb-14" value="" style="endArrow=classic;html=1;rounded=0;" edge="1" parent="1">
          <mxGeometry width="50" height="50" relative="1" as="geometry">
            <mxPoint x="490" y="417.26" as="sourcePoint" />
            <mxPoint x="550" y="417" as="targetPoint" />
          </mxGeometry>
        </mxCell>
        <mxCell id="ZCagRAPsuJKCfBC6tAdb-15" value="Command" style="text;html=1;align=center;verticalAlign=middle;whiteSpace=wrap;rounded=0;" vertex="1" parent="1">
          <mxGeometry x="500" y="250" width="40" height="20" as="geometry" />
        </mxCell>
        <mxCell id="ZCagRAPsuJKCfBC6tAdb-16" value="Command" style="text;html=1;align=center;verticalAlign=middle;whiteSpace=wrap;rounded=0;" vertex="1" parent="1">
          <mxGeometry x="500" y="392.5" width="40" height="20" as="geometry" />
        </mxCell>
        <mxCell id="ZCagRAPsuJKCfBC6tAdb-17" value="Command" style="text;html=1;align=center;verticalAlign=middle;whiteSpace=wrap;rounded=0;" vertex="1" parent="1">
          <mxGeometry x="500" y="482.5" width="40" height="20" as="geometry" />
        </mxCell>
        <mxCell id="ZCagRAPsuJKCfBC6tAdb-18" value="Command" style="text;html=1;align=center;verticalAlign=middle;whiteSpace=wrap;rounded=0;" vertex="1" parent="1">
          <mxGeometry x="500" y="570" width="40" height="20" as="geometry" />
        </mxCell>
        <mxCell id="ZCagRAPsuJKCfBC6tAdb-19" value="" style="curved=1;endArrow=classic;html=1;rounded=0;entryX=0;entryY=0.5;entryDx=0;entryDy=0;" edge="1" parent="1" target="ZCagRAPsuJKCfBC6tAdb-8">
          <mxGeometry width="50" height="50" relative="1" as="geometry">
            <mxPoint x="350" y="410" as="sourcePoint" />
            <mxPoint x="400" y="360" as="targetPoint" />
            <Array as="points">
              <mxPoint x="370" y="370" />
              <mxPoint x="390" y="310" />
            </Array>
          </mxGeometry>
        </mxCell>
        <mxCell id="ZCagRAPsuJKCfBC6tAdb-20" value="" style="curved=1;endArrow=classic;html=1;rounded=0;entryX=0;entryY=0.643;entryDx=0;entryDy=0;entryPerimeter=0;" edge="1" parent="1" target="ZCagRAPsuJKCfBC6tAdb-9">
          <mxGeometry width="50" height="50" relative="1" as="geometry">
            <mxPoint x="350" y="412.5" as="sourcePoint" />
            <mxPoint x="400" y="362.5" as="targetPoint" />
            <Array as="points">
              <mxPoint x="390" y="410" />
              <mxPoint x="390" y="420" />
            </Array>
          </mxGeometry>
        </mxCell>
        <mxCell id="ZCagRAPsuJKCfBC6tAdb-21" value="" style="curved=1;endArrow=classic;html=1;rounded=0;exitX=1;exitY=0.5;exitDx=0;exitDy=0;entryX=0;entryY=0.5;entryDx=0;entryDy=0;" edge="1" parent="1" source="ZCagRAPsuJKCfBC6tAdb-4" target="ZCagRAPsuJKCfBC6tAdb-10">
          <mxGeometry width="50" height="50" relative="1" as="geometry">
            <mxPoint x="364" y="490" as="sourcePoint" />
            <mxPoint x="414" y="440" as="targetPoint" />
            <Array as="points">
              <mxPoint x="400" y="440" />
              <mxPoint x="390" y="460" />
              <mxPoint x="400" y="470" />
              <mxPoint x="390" y="480" />
            </Array>
          </mxGeometry>
        </mxCell>
        <mxCell id="ZCagRAPsuJKCfBC6tAdb-22" value="" style="curved=1;endArrow=classic;html=1;rounded=0;entryX=0;entryY=0.5;entryDx=0;entryDy=0;exitX=1;exitY=0.75;exitDx=0;exitDy=0;" edge="1" parent="1" source="ZCagRAPsuJKCfBC6tAdb-4" target="ZCagRAPsuJKCfBC6tAdb-11">
          <mxGeometry width="50" height="50" relative="1" as="geometry">
            <mxPoint x="280" y="530" as="sourcePoint" />
            <mxPoint x="330" y="480" as="targetPoint" />
            <Array as="points">
              <mxPoint x="370" y="510" />
            </Array>
          </mxGeometry>
        </mxCell>
      </root>
    </mxGraphModel>
  </diagram>
</mxfile>
